<?xml version="1.0" encoding="utf-8"?>
<!-- Generator: Adobe Illustrator 26.3.1, SVG Export Plug-In . SVG Version: 6.00 Build 0)  -->
<svg version="1.1" id="Layer_1" xmlns="http://www.w3.org/2000/svg" xmlns:xlink="http://www.w3.org/1999/xlink" x="0px" y="0px"
	 viewBox="0 0 512 256" style="enable-background:new 0 0 512 256;" xml:space="preserve">
<style type="text/css">
	.st0{fill:#FFFFFF;}
</style>
<g>
	<path class="st0" d="M194.95,113.24c0,2.91-0.52,5.48-1.54,7.71c-1.03,2.23-2.71,4.09-5.05,5.58s-5.35,2.62-9.04,3.4
		c-3.69,0.78-8.19,1.17-13.5,1.17c-4.68,0-8.65-0.3-11.91-0.9c-3.26-0.6-5.94-1.45-8.03-2.55c-2.09-1.1-3.6-2.46-4.52-4.09
		c-0.92-1.63-1.38-3.47-1.38-5.53c0-3.12,0.87-5.55,2.6-7.28c1.74-1.74,4.16-2.85,7.28-3.35v-1.17c-2.27-0.57-4.02-1.69-5.26-3.35
		c-1.24-1.67-1.86-3.64-1.86-5.91c0-1.42,0.28-2.68,0.85-3.78c0.57-1.1,1.33-2.04,2.29-2.82s2.04-1.44,3.24-1.97
		c1.2-0.53,2.48-0.94,3.83-1.23v-0.43c-3.4-1.56-5.94-3.72-7.6-6.48c-1.67-2.76-2.5-5.98-2.5-9.67c0-5.67,1.95-10.22,5.85-13.65
		c3.9-3.44,9.6-5.15,17.12-5.15c1.7,0,3.38,0.11,5.05,0.32c1.67,0.21,3.21,0.57,4.63,1.06v-1.81c0-5.39,2.62-8.08,7.87-8.08h8.61
		V53.7h-11.8v1.49c2.91,1.63,5.07,3.76,6.49,6.38c1.42,2.62,2.13,5.64,2.13,9.04c0,5.6-1.93,10.1-5.79,13.5
		c-3.86,3.4-9.59,5.1-17.17,5.1c-3.26,0-6.1-0.32-8.51-0.96c-1.06,0.5-1.99,1.15-2.76,1.97c-0.78,0.82-1.17,1.83-1.17,3.03
		c0,2.76,2.41,4.15,7.23,4.15h14.89c6.81,0,11.75,1.4,14.83,4.2C193.41,104.4,194.95,108.28,194.95,113.24z M182.19,114.84
		c0-1.77-0.71-3.15-2.13-4.15c-1.42-0.99-3.86-1.49-7.34-1.49H153.8c-1.91,1.42-2.87,3.33-2.87,5.74c0,2.13,0.89,3.79,2.66,5
		c1.77,1.2,4.78,1.81,9.04,1.81h6.81c4.47,0,7.71-0.57,9.73-1.7C181.18,118.91,182.19,117.18,182.19,114.84z M165.82,79.86
		c6.66,0,10-2.82,10-8.46v-1.8c0-5.64-3.33-8.46-10-8.46c-6.66,0-10,2.82-10,8.46v1.8C155.82,77.04,159.15,79.86,165.82,79.86z"/>
	<path class="st0" d="M216.74,109.84c-4.11,0-7.78-0.69-11.01-2.07c-3.23-1.38-5.95-3.33-8.19-5.85c-2.23-2.52-3.95-5.56-5.16-9.14
		c-1.21-3.58-1.81-7.6-1.81-12.07c0-4.39,0.58-8.36,1.75-11.91c1.17-3.54,2.85-6.57,5.05-9.09c2.2-2.52,4.89-4.47,8.08-5.85
		c3.19-1.38,6.81-2.07,10.85-2.07c4.32,0,8.08,0.74,11.27,2.23s5.81,3.51,7.87,6.06c2.06,2.55,3.6,5.51,4.63,8.88
		c1.03,3.37,1.54,6.96,1.54,10.79v4.47h-36.9v1.37c0,4.01,1.13,7.23,3.4,9.66c2.27,2.43,5.64,3.64,10.1,3.64
		c3.4,0,6.18-0.7,8.35-2.11c2.16-1.41,4.09-3.2,5.79-5.38l7.34,8.21c-2.27,3.2-5.37,5.71-9.3,7.52
		C226.47,108.93,221.91,109.84,216.74,109.84z M216.53,61.99c-3.62,0-6.49,1.21-8.61,3.62c-2.13,2.41-3.19,5.53-3.19,9.36v0.85
		h22.76v-0.96c0-3.83-0.94-6.93-2.82-9.3C222.78,63.18,220.07,61.99,216.53,61.99z"/>
	<path class="st0" d="M263.13,108.56c-4.68,0-8.24-1.22-10.69-3.66c-2.45-2.44-3.67-5.92-3.67-10.45V64.01h-8.19V53.06h4.25
		c2.06,0,3.46-0.48,4.2-1.44c0.74-0.96,1.12-2.39,1.12-4.31v-9.46h12.23v15.21h11.38v10.95h-11.38v33.6h10.53v10.95H263.13z"/>
	<path class="st0" d="M144.87,197.18v-55.51h13.61v55.51H144.87z"/>
	<path class="st0" d="M166.3,197.18v-55.51h13.61v9.25h0.53c1.13-2.98,2.92-5.48,5.37-7.5c2.45-2.02,5.83-3.03,10.15-3.03
		c5.74,0,10.14,1.88,13.19,5.64c3.05,3.76,4.57,9.11,4.57,16.06v35.09h-13.61v-33.71c0-3.97-0.71-6.95-2.13-8.93
		c-1.42-1.98-3.76-2.98-7.02-2.98c-1.42,0-2.78,0.2-4.09,0.58c-1.31,0.39-2.48,0.96-3.51,1.7c-1.03,0.74-1.86,1.67-2.5,2.76
		c-0.64,1.1-0.96,2.39-0.96,3.88v36.68H166.3z"/>
	<path class="st0" d="M238.95,198.45c-5.32,0-9.78-0.9-13.4-2.71c-3.62-1.81-6.81-4.31-9.57-7.5l8.29-8.08
		c2.06,2.34,4.31,4.18,6.75,5.53c2.45,1.35,5.26,2.02,8.45,2.02c3.26,0,5.62-0.57,7.07-1.7c1.45-1.13,2.18-2.69,2.18-4.68
		c0-1.63-0.52-2.92-1.54-3.88c-1.03-0.96-2.78-1.61-5.26-1.97l-5.53-0.75c-6.03-0.78-10.62-2.5-13.77-5.16
		c-3.16-2.66-4.73-6.54-4.73-11.64c0-2.69,0.5-5.12,1.49-7.28c0.99-2.16,2.41-4,4.25-5.53c1.84-1.52,4.06-2.69,6.65-3.51
		c2.59-0.81,5.48-1.22,8.67-1.22c2.69,0,5.09,0.2,7.18,0.58c2.09,0.39,3.99,0.96,5.69,1.7c1.7,0.74,3.26,1.67,4.68,2.76
		c1.42,1.1,2.8,2.32,4.15,3.67l-7.98,7.98c-1.63-1.7-3.58-3.12-5.85-4.25c-2.27-1.13-4.75-1.7-7.44-1.7c-2.98,0-5.12,0.53-6.43,1.59
		c-1.31,1.06-1.97,2.45-1.97,4.15c0,1.84,0.55,3.24,1.65,4.2c1.1,0.96,2.96,1.65,5.58,2.07l5.64,0.74
		c11.98,1.7,17.97,7.16,17.97,16.38c0,2.7-0.55,5.16-1.65,7.39c-1.1,2.23-2.64,4.15-4.63,5.74c-1.99,1.59-4.38,2.84-7.18,3.72
		C245.56,198.01,242.42,198.45,238.95,198.45z"/>
	<path class="st0" d="M265.66,141.67h13.61v9.14h0.43c0.99-3.19,2.87-5.72,5.64-7.6c2.76-1.88,5.99-2.82,9.68-2.82
		c7.09,0,12.49,2.5,16.22,7.5c3.72,5,5.58,12.14,5.58,21.43c0,9.36-1.86,16.55-5.58,21.59c-3.72,5.03-9.13,7.55-16.22,7.55
		c-3.69,0-6.9-0.96-9.62-2.87c-2.73-1.91-4.63-4.47-5.69-7.66h-0.43v30.52h-13.61V141.67z M290.65,187.18
		c3.54,0,6.42-1.17,8.61-3.51c2.2-2.34,3.3-5.49,3.3-9.46v-9.57c0-3.97-1.1-7.14-3.3-9.52c-2.2-2.37-5.07-3.56-8.61-3.56
		c-3.26,0-5.97,0.82-8.13,2.45c-2.16,1.63-3.24,3.79-3.24,6.49v17.65c0,2.91,1.08,5.14,3.24,6.7
		C284.67,186.4,287.39,187.18,290.65,187.18z"/>
	<path class="st0" d="M322.38,197.18v-55.51h13.61v55.51H322.38z"/>
	<path class="st0" d="M343.81,197.18v-55.51h13.61v11.48h0.53c0.35-1.49,0.9-2.92,1.65-4.31c0.74-1.38,1.72-2.61,2.92-3.67
		c1.21-1.06,2.64-1.91,4.31-2.55c1.67-0.64,3.6-0.96,5.79-0.96h2.98v12.87h-4.25c-4.61,0-8.08,0.67-10.42,2.02
		c-2.34,1.35-3.51,3.55-3.51,6.59v34.03H343.81z"/>
	<path class="st0" d="M400.66,198.45c-4.11,0-7.78-0.69-11.01-2.07c-3.23-1.38-5.96-3.33-8.19-5.85c-2.23-2.52-3.95-5.56-5.16-9.14
		c-1.21-3.58-1.81-7.6-1.81-12.07c0-4.39,0.58-8.36,1.75-11.91c1.17-3.54,2.85-6.57,5.05-9.09c2.2-2.52,4.89-4.47,8.08-5.85
		c3.19-1.38,6.8-2.07,10.85-2.07c4.32,0,8.08,0.74,11.27,2.23c3.19,1.49,5.81,3.51,7.87,6.06c2.06,2.55,3.6,5.51,4.63,8.88
		c1.03,3.37,1.54,6.96,1.54,10.79v4.47h-36.9v1.37c0,4.01,1.13,7.23,3.4,9.66c2.27,2.43,5.63,3.64,10.1,3.64
		c3.4,0,6.18-0.7,8.35-2.11c2.16-1.41,4.09-3.2,5.79-5.38l7.34,8.21c-2.27,3.2-5.37,5.71-9.3,7.52
		C410.38,197.54,405.83,198.45,400.66,198.45z M400.44,150.6c-3.62,0-6.49,1.21-8.61,3.62c-2.13,2.41-3.19,5.53-3.19,9.36v0.85
		h22.75v-0.96c0-3.83-0.94-6.93-2.82-9.3C406.7,151.79,403.99,150.6,400.44,150.6z"/>
	<path class="st0" d="M464.71,187.92h-0.53c-0.99,3.19-2.87,5.74-5.63,7.66c-2.76,1.91-5.99,2.87-9.68,2.87
		c-7.02,0-12.39-2.52-16.11-7.55c-3.72-5.03-5.58-12.23-5.58-21.59c0-9.29,1.86-16.43,5.58-21.43c3.72-5,9.09-7.5,16.11-7.5
		c3.68,0,6.91,0.94,9.68,2.82c2.77,1.88,4.64,4.41,5.63,7.6h0.53v-32.32h13.61v78.69h-13.61V187.92z M453.23,187.18
		c3.26,0,5.99-0.78,8.19-2.34c2.2-1.56,3.3-3.79,3.3-6.7v-17.65c0-2.69-1.1-4.85-3.3-6.49c-2.2-1.63-4.93-2.45-8.19-2.45
		c-3.54,0-6.4,1.19-8.56,3.56c-2.16,2.38-3.24,5.55-3.24,9.52v9.57c0,3.97,1.08,7.12,3.24,9.46
		C446.83,186.01,449.68,187.18,453.23,187.18z"/>
	<g>
		<path class="st0" d="M113.35,137.19c0,4.14-0.72,7.79-2.14,10.94c-1.43,3.15-3.77,5.84-7.02,8.06c-3.25,2.22-7.57,3.89-12.94,5.03
			c-5.38,1.13-12,1.7-19.89,1.7c-6.71,0-12.4-0.42-17.08-1.26c-4.68-0.84-8.48-2.02-11.39-3.55c-2.91-1.53-5.03-3.4-6.36-5.62
			c-1.33-2.22-2-4.76-2-7.62c0-4.34,1.28-7.74,3.85-10.2c2.56-2.47,6.11-3.99,10.65-4.58v-1.63c-3.75-0.69-6.56-2.29-8.43-4.81
			c-1.87-2.52-2.81-5.45-2.81-8.81c0-2.07,0.42-3.88,1.26-5.41c0.84-1.53,1.92-2.86,3.25-4c1.33-1.13,2.88-2.05,4.66-2.74
			c1.77-0.69,3.55-1.23,5.32-1.63v-0.59c-4.73-2.17-8.23-5.15-10.5-8.94c-2.27-3.79-3.4-8.2-3.4-13.23c0-7.88,2.74-14.21,8.21-18.99
			s13.83-7.17,25.07-7.17c5.13,0,9.51,0.49,13.16,1.48v-2.96c0-4.14,1.01-7.12,3.03-8.95c2.02-1.82,4.9-2.74,8.65-2.74h12.27v16.27
			H91.61v0.89c4.53,2.17,7.89,5.15,10.06,8.95c2.17,3.8,3.25,8.21,3.25,13.24c0,7.79-2.74,14.03-8.21,18.71
			c-5.47,4.68-13.83,7.03-25.07,7.03c-5.03,0-9.61-0.54-13.75-1.63c-2.27,1.48-3.4,3.55-3.4,6.21c0,1.87,0.71,3.33,2.14,4.36
			c1.43,1.04,3.82,1.55,7.17,1.55h22.48c9.46,0,16.34,1.97,20.63,5.92C111.21,124.42,113.35,129.99,113.35,137.19z M92.8,140.15
			c0-2.27-0.89-3.99-2.66-5.18c-1.77-1.18-4.88-1.77-9.32-1.77H54.2c-0.99,0.98-1.7,2.09-2.14,3.33c-0.44,1.23-0.67,2.44-0.67,3.62
			c0,2.86,1.23,4.96,3.7,6.29c2.46,1.33,6.66,2,12.57,2h8.87c5.92,0,10.11-0.66,12.57-2C91.56,145.1,92.8,143.01,92.8,140.15z
			 M71.65,89.57c4.34,0,7.57-0.91,9.69-2.72c2.12-1.81,3.18-4.43,3.18-7.86v-1.77c0-3.43-1.06-6.05-3.18-7.86
			c-2.12-1.81-5.35-2.72-9.69-2.72c-4.34,0-7.57,0.91-9.69,2.72c-2.12,1.81-3.18,4.43-3.18,7.86v1.77c0,3.43,1.06,6.05,3.18,7.86
			C64.08,88.66,67.31,89.57,71.65,89.57z"/>
		<path class="st0" d="M112.76,175.28v21.89H35.12v-21.89H112.76z"/>
	</g>
</g>
</svg>
