<?xml version="1.0" encoding="utf-8"?>
<!-- Generator: Adobe Illustrator 26.3.1, SVG Export Plug-In . SVG Version: 6.00 Build 0)  -->
<svg version="1.1" id="Layer_1" xmlns="http://www.w3.org/2000/svg" xmlns:xlink="http://www.w3.org/1999/xlink" x="0px" y="0px"
	 viewBox="0 0 256 256" style="enable-background:new 0 0 256 256;" xml:space="preserve">
<style type="text/css">
	.st0{fill:#FFFFFF;}
</style>
<g>
	<path class="st0" d="M167.63,147.16c0,4.14-0.72,7.79-2.14,10.94c-1.43,3.15-3.77,5.84-7.02,8.06c-3.25,2.22-7.57,3.89-12.94,5.03
		c-5.38,1.13-12,1.7-19.89,1.7c-6.71,0-12.4-0.42-17.08-1.26c-4.68-0.84-8.48-2.02-11.39-3.55c-2.91-1.53-5.03-3.4-6.36-5.62
		c-1.33-2.22-2-4.76-2-7.62c0-4.34,1.28-7.74,3.85-10.2c2.56-2.47,6.11-3.99,10.65-4.58v-1.63c-3.75-0.69-6.56-2.29-8.43-4.81
		c-1.87-2.52-2.81-5.45-2.81-8.81c0-2.07,0.42-3.88,1.26-5.41c0.84-1.53,1.92-2.86,3.25-4c1.33-1.13,2.88-2.05,4.66-2.74
		c1.77-0.69,3.55-1.23,5.32-1.63v-0.59c-4.73-2.17-8.23-5.15-10.5-8.94c-2.27-3.79-3.4-8.2-3.4-13.23c0-7.88,2.74-14.21,8.21-18.99
		s13.83-7.17,25.07-7.17c5.13,0,9.51,0.49,13.16,1.48v-2.96c0-4.14,1.01-7.12,3.03-8.95c2.02-1.82,4.9-2.74,8.65-2.74h12.27v16.27
		h-17.16v0.89c4.53,2.17,7.89,5.15,10.06,8.95c2.17,3.8,3.25,8.21,3.25,13.24c0,7.79-2.74,14.03-8.21,18.71
		c-5.47,4.68-13.83,7.03-25.07,7.03c-5.03,0-9.61-0.54-13.75-1.63c-2.27,1.48-3.4,3.55-3.4,6.21c0,1.87,0.71,3.33,2.14,4.36
		c1.43,1.04,3.82,1.55,7.17,1.55h22.48c9.46,0,16.34,1.97,20.63,5.92C165.49,134.39,167.63,139.96,167.63,147.16z M147.08,150.12
		c0-2.27-0.89-3.99-2.66-5.18c-1.77-1.18-4.88-1.77-9.32-1.77h-26.62c-0.99,0.98-1.7,2.09-2.14,3.33c-0.44,1.23-0.67,2.44-0.67,3.62
		c0,2.86,1.23,4.96,3.7,6.29c2.46,1.33,6.66,2,12.57,2h8.87c5.92,0,10.11-0.66,12.57-2C145.84,155.07,147.08,152.97,147.08,150.12z
		 M125.93,99.54c4.34,0,7.57-0.91,9.69-2.72c2.12-1.81,3.18-4.43,3.18-7.86v-1.77c0-3.43-1.06-6.05-3.18-7.86
		c-2.12-1.81-5.35-2.72-9.69-2.72c-4.34,0-7.57,0.91-9.69,2.72c-2.12,1.81-3.18,4.43-3.18,7.86v1.77c0,3.43,1.06,6.05,3.18,7.86
		C118.36,98.63,121.59,99.54,125.93,99.54z"/>
	<path class="st0" d="M167.04,185.24v21.89H89.4v-21.89H167.04z"/>
</g>
</svg>
